<?xml version="1.0" encoding="UTF-8" standalone="no"?>
<svg
   xmlns:dc="http://purl.org/dc/elements/1.1/"
   xmlns:cc="http://creativecommons.org/ns#"
   xmlns:rdf="http://www.w3.org/1999/02/22-rdf-syntax-ns#"
   xmlns:svg="http://www.w3.org/2000/svg"
   xmlns="http://www.w3.org/2000/svg"
   id="svg8"
   version="1.1"
   viewBox="0 0 210 297"
   height="297mm"
   width="210mm">
  <defs
     id="defs2" />
  <metadata
     id="metadata5">
    <rdf:RDF>
      <cc:Work
         rdf:about="">
        <dc:format>image/svg+xml</dc:format>
        <dc:type
           rdf:resource="http://purl.org/dc/dcmitype/StillImage" />
        <dc:title></dc:title>
      </cc:Work>
    </rdf:RDF>
  </metadata>
  <g
     id="layer1">
    <path
       d="m 0.06662568,-0.33389969 2.96054872,0.67528353 2.9606116,0.009224 2.9605602,0.008631 2.9605608,0.17344137 2.960928,0.27227734 2.96177,0.0401646 2.96082,0.001555 2.960589,-0.009105 2.960521,-0.16094977 2.959664,0.004534 2.960589,-0.20438142 2.959769,0.1776498 2.961233,0.0362829 2.960751,0.0430486 2.960814,0.0544002 2.960919,-0.0605367 2.960195,-0.25504759 2.959406,0.17340301 2.961277,0.12856632 2.961362,-0.23875181 2.959256,-0.18324621 2.960033,-0.29086065 2.960627,0.19218749 2.96037,0.15086719 2.960767,-0.19821254 2.960328,-0.0116821 2.960554,0.22903371 2.960833,0.0420798 2.960697,0.0698933 2.96086,0.54424734 2.965654,-0.19173637 2.958299,0.13408837 2.962289,-0.38762375 2.956649,-0.12658378 2.95981,-0.13986761 2.96002,-0.0219252 2.9605,0.0165612 2.9606,-0.43005134 2.96122,-0.09730082 2.96126,-0.0251903 2.96081,0.34355604 2.95878,0.27082797 2.96093,0.0227636 2.96068,-0.0105023 2.96051,-0.006951 2.96054,-0.28748565 2.96012,0.45874488 2.96235,-0.26607523 2.95882,-0.22743222 2.96059,0.2558482 2.96063,0.12651846 2.96138,-0.21712665 2.95946,0.28625997 2.96248,0.11253119 2.9623,-0.14188376 2.95866,-0.0180854 2.96044,-0.10055694 2.9596,0.0826233 2.9615,0.10746858 2.96246,-0.10177209 2.959,-0.53690558 2.96058,-0.09453232 2.96271,0.09617981 2.95881,0.46401939 2.9597,-0.0492671 2.95996,0.0733512 2.96221,-0.0211407 2.96045,0.10426683 2.96506,-0.11891358 2.95644,-0.34321692 2.95749,0.09195545 V 3.1054038 5.9127257 9.2984862 l 0,2.4378878 v 3.202737 2.981448 2.938704 l 0,2.824804 v 2.555366 3.535666 2.927346 2.949078 3.094468 2.771166 2.998381 l -2.96055,0.06067 -2.96056,-0.02438 -2.96054,-0.239318 -2.96077,0.0081 -2.96054,-0.323794 -2.96174,-0.02083 -2.96069,0.234196 -2.95952,0.01492 -2.96051,0.264501 -2.96008,-0.09973 -2.96064,-0.565746 -2.96317,-0.05433 -2.96104,-0.144964 -2.96198,-0.04965 -2.96117,0.06932 -2.95989,-0.07685 -2.96148,0.01756 -2.96045,-0.105415 -2.96196,-0.01215 -2.96084,-0.364967 -2.96658,0.554922 -2.95238,0.01292 -2.9605,-0.442789 -2.96723,0.118356 -2.95873,0.0546 -2.95985,0.101619 -2.95914,-0.154797 -2.96329,-0.101298 -2.9627,0.03109 -2.96023,0.397222 -2.95412,-0.451875 -2.96873,0.101 -2.95876,0.115072 -2.95858,-0.03113 -2.96143,-0.01028 -2.96107,0.121663 -2.95843,-0.280716 -2.967048,-0.03159 -2.961845,-0.131513 -2.964811,-0.08687 -2.963972,0.142411 -2.956804,0.144358 -2.956952,-0.02788 -2.961982,-0.0896 -2.9641,0.04241 -2.959961,-0.111917 -2.965423,0.116926 -2.957268,-0.307267 -2.974298,0.279685 -2.949952,0.02378 -2.960782,0.09707 -2.957848,0.345545 -2.949427,0.24806 -2.954531,0.166117 -2.957495,0.06178 -2.959713,-0.07382 -2.962149,0.04406 -2.959964,0.393545 -2.95624,0.07862 -2.960517,0.06388 -2.960774,-0.05318 -2.960351,0.167295 -2.961944,-0.09488 -2.959576,0.494646 -2.975339,0.170332 -2.973672,0.05107 -2.96932,-0.227496 -2.9463721,-0.160928 -2.9521533,0.02256 -2.9640172,0.0762 -2.94249372,-0.556417 V 41.581617 38.472329 35.624321 32.639696 29.637873 26.792619 23.772832 20.458544 17.917909 14.861 11.98932 8.5857027 6.3656154 3.1044352 Z"
       rx="0"
       y="0.22644196"
       x="0.066625684"
       height="44.306587"
       width="210.19896"
       id="rect833"
       style="fill:#77ce7a;fill-opacity:1;stroke:#369b3c;stroke-width:0.706;stroke-linecap:square;stroke-linejoin:miter;stroke-miterlimit:4;stroke-dasharray:none;stroke-dashoffset:4.8714;stroke-opacity:1;paint-order:stroke markers fill" />
  </g>
</svg>
