<?xml version="1.0" encoding="UTF-8" standalone="no"?>
<svg
   xmlns:osb="http://www.openswatchbook.org/uri/2009/osb"
   xmlns:dc="http://purl.org/dc/elements/1.1/"
   xmlns:cc="http://creativecommons.org/ns#"
   xmlns:rdf="http://www.w3.org/1999/02/22-rdf-syntax-ns#"
   xmlns:svg="http://www.w3.org/2000/svg"
   xmlns="http://www.w3.org/2000/svg"
   xmlns:xlink="http://www.w3.org/1999/xlink"
   xmlns:sodipodi="http://sodipodi.sourceforge.net/DTD/sodipodi-0.dtd"
   xmlns:inkscape="http://www.inkscape.org/namespaces/inkscape"
   width="1mm"
   height="1mm"
   viewBox="0 0 100 100"
   version="1.1"
   id="svg8"
   inkscape:version="1.0 (4035a4fb49, 2020-05-01)"
   sodipodi:docname="siege-tower.svg">
  <defs
     id="defs2">
    <linearGradient
       osb:paint="solid"
       id="linearGradient929">
      <stop
         id="stop927"
         offset="0"
         style="stop-color:#864a00;stop-opacity:1;" />
    </linearGradient>
    <linearGradient
       osb:paint="solid"
       id="linearGradient903">
      <stop
         id="stop901"
         offset="0"
         style="stop-color:#563c0e;stop-opacity:1;" />
    </linearGradient>
    <linearGradient
       osb:paint="solid"
       id="linearGradient897">
      <stop
         id="stop895"
         offset="0"
         style="stop-color:#864a00;stop-opacity:1;" />
    </linearGradient>
    <linearGradient
       osb:paint="solid"
       id="linearGradient889">
      <stop
         id="stop887"
         offset="0"
         style="stop-color:#864a00;stop-opacity:1;" />
    </linearGradient>
    <linearGradient
       osb:paint="solid"
       id="linearGradient881">
      <stop
         id="stop879"
         offset="0"
         style="stop-color:#563c0e;stop-opacity:1;" />
    </linearGradient>
    <linearGradient
       id="linearGradient875">
      <stop
         id="stop873"
         offset="0"
         style="stop-color:#563c0e;stop-opacity:1;" />
    </linearGradient>
    <linearGradient
       osb:paint="solid"
       id="linearGradient867">
      <stop
         id="stop865"
         offset="0"
         style="stop-color:#563c0e;stop-opacity:1;" />
    </linearGradient>
    <linearGradient
       osb:paint="solid"
       id="linearGradient861">
      <stop
         id="stop859"
         offset="0"
         style="stop-color:#864a00;stop-opacity:1;" />
    </linearGradient>
    <linearGradient
       osb:paint="solid"
       id="linearGradient855">
      <stop
         id="stop853"
         offset="0"
         style="stop-color:#996107;stop-opacity:1;" />
    </linearGradient>
    <linearGradient
       gradientTransform="rotate(90,-15.870182,-21.131999)"
       gradientUnits="userSpaceOnUse"
       y2="-71.973854"
       x2="121.27198"
       y1="-71.973854"
       x1="117.72448"
       id="linearGradient857"
       xlink:href="#linearGradient855"
       inkscape:collect="always" />
    <linearGradient
       gradientTransform="rotate(90,-15.870182,-21.131999)"
       gradientUnits="userSpaceOnUse"
       y2="-71.973854"
       x2="121.27198"
       y1="-71.973854"
       x1="117.72448"
       id="linearGradient863"
       xlink:href="#linearGradient861"
       inkscape:collect="always" />
    <linearGradient
       gradientTransform="translate(-37.002181,-5.2618164)"
       gradientUnits="userSpaceOnUse"
       y2="129.58894"
       x2="83.239319"
       y1="129.58894"
       x1="60.708389"
       id="linearGradient869"
       xlink:href="#linearGradient867"
       inkscape:collect="always" />
    <linearGradient
       gradientTransform="matrix(0.84442873,0,0,0.84442873,-5.6636068,11.667244)"
       y2="145.26659"
       x2="63.764854"
       y1="145.26659"
       x1="56.304932"
       gradientUnits="userSpaceOnUse"
       id="linearGradient885"
       xlink:href="#linearGradient855"
       inkscape:collect="always" />
    <linearGradient
       gradientTransform="matrix(0.84442873,0,0,0.84442873,-7.5059348,16.445579)"
       gradientUnits="userSpaceOnUse"
       y2="139.60793"
       x2="66.399696"
       y1="139.60793"
       x1="58.033577"
       id="linearGradient891"
       xlink:href="#linearGradient861"
       inkscape:collect="always" />
    <linearGradient
       gradientTransform="matrix(1,0,0,0.94220795,-2.0214998,8.3751872)"
       gradientUnits="userSpaceOnUse"
       y2="133.66458"
       x2="46.188099"
       y1="133.66458"
       x1="44.941124"
       id="linearGradient899"
       xlink:href="#linearGradient861"
       inkscape:collect="always" />
    <linearGradient
       gradientTransform="matrix(1,0,0,0.94220795,-2.0214998,8.3751872)"
       gradientUnits="userSpaceOnUse"
       y2="133.66458"
       x2="46.188099"
       y1="133.66458"
       x1="44.941124"
       id="linearGradient905"
       xlink:href="#linearGradient855"
       inkscape:collect="always" />
    <linearGradient
       y2="133.66458"
       x2="46.188099"
       y1="133.66458"
       x1="44.941124"
       gradientTransform="matrix(1,0,0,0.96027762,0.85126311,5.9809212)"
       gradientUnits="userSpaceOnUse"
       id="linearGradient909"
       xlink:href="#linearGradient855"
       inkscape:collect="always" />
    <linearGradient
       y2="133.66458"
       x2="46.188099"
       y1="133.66458"
       x1="44.941124"
       gradientTransform="matrix(1,0,0,0.96027762,0.85126311,5.9809212)"
       gradientUnits="userSpaceOnUse"
       id="linearGradient911"
       xlink:href="#linearGradient861"
       inkscape:collect="always" />
    <linearGradient
       y2="133.66458"
       x2="46.188099"
       y1="133.66458"
       x1="44.941124"
       gradientTransform="matrix(0,1,-0.96277795,0,173.67425,90.194334)"
       gradientUnits="userSpaceOnUse"
       id="linearGradient917"
       xlink:href="#linearGradient855"
       inkscape:collect="always" />
    <linearGradient
       y2="133.66458"
       x2="46.188099"
       y1="133.66458"
       x1="44.941124"
       gradientTransform="matrix(0,1,-0.96277795,0,173.67425,90.194334)"
       gradientUnits="userSpaceOnUse"
       id="linearGradient919"
       xlink:href="#linearGradient861"
       inkscape:collect="always" />
    <linearGradient
       y2="133.66458"
       x2="46.188099"
       y1="133.66458"
       x1="44.941124"
       gradientTransform="matrix(0,1,-0.99396261,0,177.78067,87.391899)"
       gradientUnits="userSpaceOnUse"
       id="linearGradient921"
       xlink:href="#linearGradient855"
       inkscape:collect="always" />
    <linearGradient
       y2="133.66458"
       x2="46.188099"
       y1="133.66458"
       x1="44.941124"
       gradientTransform="matrix(0,1,-0.99396261,0,177.78067,87.391899)"
       gradientUnits="userSpaceOnUse"
       id="linearGradient923"
       xlink:href="#linearGradient861"
       inkscape:collect="always" />
    <linearGradient
       y2="145.26659"
       x2="63.764854"
       y1="145.26659"
       x1="56.304932"
       gradientTransform="matrix(0.84442873,0,0,0.84442873,-25.574395,11.307129)"
       gradientUnits="userSpaceOnUse"
       id="linearGradient955"
       xlink:href="#linearGradient855"
       inkscape:collect="always" />
    <linearGradient
       y2="139.60793"
       x2="66.399696"
       y1="139.60793"
       x1="58.033577"
       gradientTransform="matrix(0.84442873,0,0,0.84442873,-27.416723,16.085464)"
       gradientUnits="userSpaceOnUse"
       id="linearGradient957"
       xlink:href="#linearGradient861"
       inkscape:collect="always" />
    <linearGradient
       y2="133.66458"
       x2="46.188099"
       y1="133.66458"
       x1="44.941124"
       gradientTransform="matrix(1,0,0,0.94220795,-21.932288,8.0150725)"
       gradientUnits="userSpaceOnUse"
       id="linearGradient959"
       xlink:href="#linearGradient855"
       inkscape:collect="always" />
    <linearGradient
       y2="133.66458"
       x2="46.188099"
       y1="133.66458"
       x1="44.941124"
       gradientTransform="matrix(1,0,0,0.94220795,-21.932288,8.0150725)"
       gradientUnits="userSpaceOnUse"
       id="linearGradient961"
       xlink:href="#linearGradient861"
       inkscape:collect="always" />
    <linearGradient
       y2="133.66458"
       x2="46.188099"
       y1="133.66458"
       x1="44.941124"
       gradientTransform="matrix(1,0,0,0.96027762,-19.059525,5.6208065)"
       gradientUnits="userSpaceOnUse"
       id="linearGradient963"
       xlink:href="#linearGradient855"
       inkscape:collect="always" />
    <linearGradient
       y2="133.66458"
       x2="46.188099"
       y1="133.66458"
       x1="44.941124"
       gradientTransform="matrix(1,0,0,0.96027762,-19.059525,5.6208065)"
       gradientUnits="userSpaceOnUse"
       id="linearGradient965"
       xlink:href="#linearGradient861"
       inkscape:collect="always" />
    <linearGradient
       y2="133.66458"
       x2="46.188099"
       y1="133.66458"
       x1="44.941124"
       gradientTransform="matrix(0,1,-0.99396261,0,157.86987,87.031783)"
       gradientUnits="userSpaceOnUse"
       id="linearGradient967"
       xlink:href="#linearGradient855"
       inkscape:collect="always" />
    <linearGradient
       y2="133.66458"
       x2="46.188099"
       y1="133.66458"
       x1="44.941124"
       gradientTransform="matrix(0,1,-0.99396261,0,157.86987,87.031783)"
       gradientUnits="userSpaceOnUse"
       id="linearGradient969"
       xlink:href="#linearGradient861"
       inkscape:collect="always" />
    <linearGradient
       y2="133.66458"
       x2="46.188099"
       y1="133.66458"
       x1="44.941124"
       gradientTransform="matrix(0,1,-0.96277795,0,153.76345,89.834218)"
       gradientUnits="userSpaceOnUse"
       id="linearGradient971"
       xlink:href="#linearGradient855"
       inkscape:collect="always" />
    <linearGradient
       y2="133.66458"
       x2="46.188099"
       y1="133.66458"
       x1="44.941124"
       gradientTransform="matrix(0,1,-0.96277795,0,153.76345,89.834218)"
       gradientUnits="userSpaceOnUse"
       id="linearGradient973"
       xlink:href="#linearGradient861"
       inkscape:collect="always" />
    <linearGradient
       inkscape:collect="always"
       xlink:href="#linearGradient867"
       id="linearGradient922"
       gradientUnits="userSpaceOnUse"
       x1="60.708389"
       y1="129.58894"
       x2="83.239319"
       y2="129.58894" />
    <linearGradient
       gradientTransform="rotate(90)"
       inkscape:collect="always"
       xlink:href="#linearGradient855"
       id="linearGradient924"
       gradientUnits="userSpaceOnUse"
       x1="117.72448"
       y1="-71.973854"
       x2="121.27198"
       y2="-71.973854" />
    <linearGradient
       gradientTransform="rotate(90)"
       inkscape:collect="always"
       xlink:href="#linearGradient861"
       id="linearGradient926"
       gradientUnits="userSpaceOnUse"
       x1="117.72448"
       y1="-71.973854"
       x2="121.27198"
       y2="-71.973854" />
  </defs>
  <sodipodi:namedview
     inkscape:window-maximized="1"
     inkscape:window-y="52"
     inkscape:window-x="1280"
     inkscape:window-height="995"
     inkscape:window-width="1272"
     showgrid="false"
     inkscape:document-rotation="0"
     inkscape:current-layer="layer1"
     inkscape:document-units="mm"
     inkscape:cy="-5.9445257"
     inkscape:cx="-0.95489931"
     inkscape:zoom="11.159417"
     inkscape:pageshadow="2"
     inkscape:pageopacity="0.0"
     borderopacity="1.0"
     bordercolor="#666666"
     pagecolor="#ffffff"
     id="base"
     units="mm"
     scale-x="1" />
  <metadata
     id="metadata5">
    <rdf:RDF>
      <cc:Work
         rdf:about="">
        <dc:format>image/svg+xml</dc:format>
        <dc:type
           rdf:resource="http://purl.org/dc/dcmitype/StillImage" />
        <dc:title />
        <cc:license
           rdf:resource="http://artlibre.org/licence/lal" />
      </cc:Work>
      <cc:License
         rdf:about="http://artlibre.org/licence/lal">
        <cc:permits
           rdf:resource="http://creativecommons.org/ns#Reproduction" />
        <cc:permits
           rdf:resource="http://creativecommons.org/ns#Distribution" />
        <cc:permits
           rdf:resource="http://creativecommons.org/ns#DerivativeWorks" />
        <cc:requires
           rdf:resource="http://creativecommons.org/ns#ShareAlike" />
        <cc:requires
           rdf:resource="http://creativecommons.org/ns#Notice" />
        <cc:requires
           rdf:resource="http://creativecommons.org/ns#Attribution" />
      </cc:License>
    </rdf:RDF>
  </metadata>
  <g
     id="layer1"
     inkscape:groupmode="layer"
     inkscape:label="Layer 1">
    <g
       id="g1813">
      <g
         style="display:inline"
         id="g920"
         inkscape:label="body">
        <path
           d="m -97.1389,-395.537 c 64.3727,0 128.7445,0 193.1169,0 3.928,4.069 0.906,11.955 1.855,17.619 0,59.118 0,118.236 0,177.353 -4.067,3.928 -11.954,0.907 -17.618,1.857 -59.1181,0 -118.236,0 -177.3539,0 -3.9271,-4.069 -0.9054,-11.954 -1.8556,-17.62 0,-59.117 0,-118.235 0,-177.353 l 0.5424,-1.314 z"
           style="fill:url(#linearGradient922);fill-opacity:1;stroke:none;stroke-width:7.91645;stroke-linecap:round;stroke-linejoin:round;stroke-miterlimit:4;stroke-dasharray:none;stroke-opacity:1;paint-order:stroke markers fill"
           id="rect908" />
        <path
           d="m -94.0349,-372.867 c 5.3341,-4.479 9.3806,-11.134 15.5655,-14.191 7.6636,4.587 13.2353,12.683 20.0537,18.68 49.8011,49.801 99.6022,99.602 149.4037,149.403 2.607,6.26 -6.78,9.785 -9.836,14.537 -4.035,7.377 -10.382,2.413 -13.982,-2.521 -53.7348,-53.736 -107.47,-107.472 -161.2049,-161.207 -1.2942,-1.226 -1.2942,-3.474 0,-4.701 z"
           style="display:inline;fill:#996107;fill-opacity:1;stroke:#864a00;stroke-width:12.9188;stroke-linecap:round;stroke-linejoin:round;stroke-miterlimit:4;stroke-dasharray:none;stroke-opacity:1;paint-order:stroke markers fill"
           id="rect910" />
        <path
           d="m 80.002,-395.537 c 5.759,1.131 14.333,-2.646 17.831,2.692 0,63.815 0,127.629 0,191.443 -3.546,5.232 -12.042,1.627 -17.831,2.693 -5.269,-3.74 -1.604,-12.467 -2.693,-18.456 0,-58.56 0,-117.12 0,-175.68 l 0.787,-1.905 z"
           style="fill:#996107;fill-opacity:1;stroke:#864a00;stroke-width:10.4654;stroke-linecap:round;stroke-linejoin:round;stroke-miterlimit:4;stroke-dasharray:none;stroke-opacity:1;paint-order:stroke markers fill"
           id="rect912" />
        <path
           d="m -96.3017,-395.537 c 5.7608,1.131 14.3336,-2.646 17.8323,2.692 0,63.815 0,127.629 0,191.443 -3.5472,5.232 -12.0423,1.627 -17.8323,2.693 -5.2683,-3.74 -1.6028,-12.467 -2.6928,-18.456 0,-58.56 0,-117.12 0,-175.68 l 0.7869,-1.905 z"
           style="fill:#996107;fill-opacity:1;stroke:#864a00;stroke-width:10.4654;stroke-linecap:round;stroke-linejoin:round;stroke-miterlimit:4;stroke-dasharray:none;stroke-opacity:1;paint-order:stroke markers fill"
           id="rect914" />
        <path
           d="m 97.833,-392.845 c -1.13,5.761 2.647,14.335 -2.692,17.833 -63.8137,0 -127.6285,0 -191.4427,0 -5.2313,-3.547 -1.6268,-12.042 -2.6928,-17.833 3.7416,-5.267 12.4671,-1.602 18.456,-2.692 58.5597,0 117.1199,0 175.6795,0 l 1.906,0.787 z"
           style="fill:url(#linearGradient924);fill-opacity:1;stroke:url(#linearGradient926);stroke-width:10.4654;stroke-linecap:round;stroke-linejoin:round;stroke-miterlimit:4;stroke-dasharray:none;stroke-opacity:1;paint-order:stroke markers fill"
           id="rect916" />
      </g>
    </g>
    <g
       id="g1791">
      <path
         d="m -97.1387,-219.233 c 64.3725,0 128.745,0 193.1167,0 3.928,4.067 0.906,11.954 1.857,17.618 0,59.12 0,118.2348 0,177.3547 -4.069,3.9255 -11.956,0.9047 -17.62,1.8551 -59.1177,0 -118.2357,0 -177.3537,0 -3.9263,-4.07 -0.9055,-11.9561 -1.8556,-17.6194 0,-59.1183 0,-118.2354 0,-177.3534 l 0.5423,-1.313 z"
         style="fill:url(#linearGradient869);fill-opacity:1;stroke:none;stroke-width:7.91645;stroke-linecap:round;stroke-linejoin:round;stroke-miterlimit:4;stroke-dasharray:none;stroke-opacity:1;paint-order:stroke markers fill"
         id="rect847" />
      <path
         d="m 77.773,-209.778 c 4.479,5.333 11.135,9.381 14.192,15.564 -4.587,7.664 -12.683,13.236 -18.68,20.055 -49.802,49.801 -99.6027,99.6032 -149.4038,149.4043 -6.2605,2.6097 -9.7861,-6.7804 -14.5358,-9.8354 -7.3773,-4.0365 -2.4133,-10.382 2.5208,-13.9839 53.7351,-53.735 107.4704,-107.469 161.2058,-161.204 1.226,-1.295 3.474,-1.295 4.701,0 z"
         style="fill:#996107;fill-opacity:1;stroke:#864a00;stroke-width:12.9188;stroke-linecap:round;stroke-linejoin:round;stroke-miterlimit:4;stroke-dasharray:none;stroke-opacity:1;paint-order:stroke markers fill"
         id="rect849" />
      <path
         d="m 80.002,-219.233 c 5.759,1.13 14.333,-2.647 17.833,2.692 0,63.814 0,127.6295 0,191.4419 -3.548,5.232 -12.043,1.6266 -17.833,2.6939 -5.269,-3.7415 -1.604,-12.4689 -2.693,-18.4581 0,-58.5591 0,-117.1187 0,-175.6777 l 0.787,-1.906 z"
         style="fill:#996107;fill-opacity:1;stroke:#864a00;stroke-width:10.4654;stroke-linecap:round;stroke-linejoin:round;stroke-miterlimit:4;stroke-dasharray:none;stroke-opacity:1;paint-order:stroke markers fill"
         id="rect845" />
      <path
         d="m -96.3016,-219.233 c 5.761,1.13 14.3337,-2.647 17.8326,2.692 0,63.814 0,127.6295 0,191.4419 -3.5474,5.232 -12.0424,1.6266 -17.8326,2.6939 -5.2684,-3.7415 -1.6028,-12.4689 -2.6927,-18.4581 0,-58.5591 0,-117.1187 0,-175.6777 l 0.7869,-1.906 z"
         style="fill:#996107;fill-opacity:1;stroke:#864a00;stroke-width:10.4654;stroke-linecap:round;stroke-linejoin:round;stroke-miterlimit:4;stroke-dasharray:none;stroke-opacity:1;paint-order:stroke markers fill"
         id="rect833" />
      <path
         d="m 97.835,-216.541 c -1.132,5.76 2.645,14.334 -2.694,17.832 -63.8137,0 -127.6285,0 -191.4426,0 -5.2304,-3.547 -1.6267,-12.041 -2.6927,-17.832 3.7416,-5.268 12.4669,-1.602 18.4562,-2.692 58.56,0 117.1195,0 175.6791,0 l 1.906,0.786 z"
         style="fill:url(#linearGradient857);fill-opacity:1;stroke:url(#linearGradient863);stroke-width:10.4654;stroke-linecap:round;stroke-linejoin:round;stroke-miterlimit:4;stroke-dasharray:none;stroke-opacity:1;paint-order:stroke markers fill"
         id="rect841" />
      <path
         d="m 97.835,-40.238 c -1.132,5.7602 2.645,14.3327 -2.694,17.8328 -63.8137,0 -127.6285,0 -191.4426,0 -5.2304,-3.5477 -1.6267,-12.042 -2.6927,-17.8328 3.7416,-5.2685 12.4669,-1.6035 18.4562,-2.6927 58.56,0 117.1195,0 175.6791,0 l 1.906,0.7882 z"
         style="fill:#996107;fill-opacity:1;stroke:#864a00;stroke-width:10.4654;stroke-linecap:round;stroke-linejoin:round;stroke-miterlimit:4;stroke-dasharray:none;stroke-opacity:1;paint-order:stroke markers fill"
         id="rect843" />
    </g>
    <g
       id="g1805">
      <path
         d="m 114.819,-33.3951 c 0.825,19.2452 -21.735,33.7341 -38.897,25.053 -17.851,-7.2145 -21.757,-33.7408 -6.72,-45.7768 13.948,-13.279 39.711,-5.8417 44.455,12.8167 0.77,2.5603 1.162,5.2329 1.162,7.9071 z"
         style="fill:url(#linearGradient885);fill-opacity:1;stroke:url(#linearGradient891);stroke-width:7.63911;stroke-linecap:round;stroke-linejoin:round;stroke-miterlimit:4;stroke-dasharray:none;stroke-opacity:1;paint-order:stroke markers fill"
         id="path871" />
      <path
         d="m 74.3,-56.5642 c 3.484,4.3653 0.765,11.933 1.627,17.6198 -0.317,9.2497 0.634,18.7227 -0.476,27.8342 -5.515,-0.7241 -1.602,-11.2271 -2.779,-16.1497 0.316,-9.5591 -0.635,-19.3418 0.476,-28.7624 z"
         style="fill:url(#linearGradient905);fill-opacity:1;stroke:url(#linearGradient899);stroke-width:7.41529;stroke-linecap:butt;stroke-linejoin:round;stroke-miterlimit:4;stroke-dasharray:none;stroke-opacity:1;paint-order:stroke markers fill"
         id="rect893" />
      <path
         d="m 99.396,-56.8196 c 3.485,4.3627 0.764,11.9305 1.626,17.6183 -0.317,9.5436 0.636,19.3116 -0.475,28.7133 -5.515,-0.7241 -1.601,-11.2233 -2.778,-16.1471 0.318,-9.8535 -0.636,-19.9315 0.475,-29.6421 z"
         style="fill:url(#linearGradient909);fill-opacity:1;stroke:url(#linearGradient911);stroke-width:7.48608;stroke-linecap:butt;stroke-linejoin:round;stroke-miterlimit:4;stroke-dasharray:none;stroke-opacity:1;paint-order:stroke markers fill"
         id="rect907" />
      <path
         d="m 110.615,-45.4345 c -4.364,3.4854 -11.932,0.7667 -17.618,1.6269 -10.092,-0.3243 -20.409,0.645 -30.36,-0.4748 0.724,-5.5143 11.222,-1.6005 16.15,-2.7786 10.399,0.3239 21.025,-0.6452 31.285,0.4778 z"
         style="fill:url(#linearGradient921);fill-opacity:1;stroke:url(#linearGradient923);stroke-width:7.616;stroke-linecap:square;stroke-linejoin:round;stroke-miterlimit:4;stroke-dasharray:none;stroke-opacity:1;paint-order:stroke markers fill"
         id="rect913" />
      <path
         d="m 110.393,-20.9533 c -4.363,3.4847 -11.931,0.7656 -17.617,1.6255 -9.586,-0.313 -19.392,0.6335 -28.838,-0.4715 0.723,-5.5177 11.224,-1.6065 16.15,-2.7794 9.894,0.313 20.009,-0.6335 29.764,0.4752 z"
         style="fill:url(#linearGradient917);fill-opacity:1;stroke:url(#linearGradient919);stroke-width:7.49558;stroke-linecap:square;stroke-linejoin:round;stroke-miterlimit:4;stroke-dasharray:none;stroke-opacity:1;paint-order:stroke markers fill"
         id="rect915" />
      <path
         d="m 90.991,-33.1967 c 0.173,7.104 -11.551,5.0026 -8.988,-1.5745 1.559,-4.8295 9.155,-3.4944 8.988,1.5745 z"
         style="fill:#563c0e;fill-opacity:1;stroke:none;stroke-width:11.9564;stroke-linecap:round;stroke-linejoin:round;stroke-miterlimit:4;stroke-dasharray:none;stroke-opacity:1;paint-order:stroke markers fill"
         id="path925" />
    </g>
    <g
       id="g1777">
      <path
         d="m -58.7157,-32.5199 c 0.8255,19.2455 -21.7342,33.7349 -38.8964,25.0495 -17.8509,-7.2107 -21.7579,-33.7373 -6.7189,-45.7752 13.9486,-13.2756 39.711,-5.8383 44.4548,12.8167 0.7686,2.5606 1.1612,5.2333 1.1605,7.909 z"
         style="fill:url(#linearGradient955);fill-opacity:1;stroke:url(#linearGradient957);stroke-width:7.63911;stroke-linecap:round;stroke-linejoin:round;stroke-miterlimit:4;stroke-dasharray:none;stroke-opacity:1;paint-order:stroke markers fill"
         id="circle941" />
      <path
         d="m -99.2343,-55.6879 c 3.4846,4.3656 0.7653,11.9304 1.6273,17.6183 -0.3167,9.2497 0.6339,18.7236 -0.4756,27.8311 -5.5154,-0.7203 -1.6027,-11.2221 -2.7784,-16.1466 0.317,-9.5602 -0.635,-19.3403 0.475,-28.7604 z"
         style="fill:url(#linearGradient959);fill-opacity:1;stroke:url(#linearGradient961);stroke-width:7.41529;stroke-linecap:butt;stroke-linejoin:round;stroke-miterlimit:4;stroke-dasharray:none;stroke-opacity:1;paint-order:stroke markers fill"
         id="rect943" />
      <path
         d="m -74.138,-55.9474 c 3.4847,4.3653 0.7652,11.9335 1.6269,17.6213 -0.3178,9.5432 0.6362,19.3081 -0.4751,28.7136 -5.5155,-0.724 -1.6028,-11.2228 -2.7791,-16.1504 0.3183,-9.852 -0.6362,-19.927 0.4756,-29.6422 z"
         style="fill:url(#linearGradient963);fill-opacity:1;stroke:url(#linearGradient965);stroke-width:7.48608;stroke-linecap:butt;stroke-linejoin:round;stroke-miterlimit:4;stroke-dasharray:none;stroke-opacity:1;paint-order:stroke markers fill"
         id="rect945" />
      <path
         d="m -62.9185,-44.5578 c -4.3644,3.4835 -11.9323,0.7649 -17.6193,1.6266 -10.0907,-0.324 -20.4082,0.6422 -30.3592,-0.4778 0.724,-5.514 11.2231,-1.6021 16.1496,-2.7787 10.3997,0.3243 21.0262,-0.6419 31.2863,0.4778 z"
         style="fill:url(#linearGradient967);fill-opacity:1;stroke:url(#linearGradient969);stroke-width:7.616;stroke-linecap:square;stroke-linejoin:round;stroke-miterlimit:4;stroke-dasharray:none;stroke-opacity:1;paint-order:stroke markers fill"
         id="rect947" />
      <path
         d="m -63.1394,-20.0766 c -4.3646,3.4836 -11.932,0.7645 -17.619,1.6281 -9.5849,-0.3168 -19.3906,0.6297 -28.8366,-0.4752 0.723,-5.5151 11.2228,-1.6046 16.1491,-2.7798 9.8939,0.3134 20.0094,-0.6328 29.7645,0.4748 z"
         style="fill:url(#linearGradient971);fill-opacity:1;stroke:url(#linearGradient973);stroke-width:7.49558;stroke-linecap:square;stroke-linejoin:round;stroke-miterlimit:4;stroke-dasharray:none;stroke-opacity:1;paint-order:stroke markers fill"
         id="rect949" />
      <path
         d="m -82.5428,-32.3234 c 0.1727,7.1058 -11.5514,5.0045 -8.9867,-1.5714 1.5576,-4.8307 9.1539,-3.4946 8.9867,1.5714 z"
         style="fill:#563c0e;fill-opacity:1;stroke:none;stroke-width:11.9564;stroke-linecap:round;stroke-linejoin:round;stroke-miterlimit:4;stroke-dasharray:none;stroke-opacity:1;paint-order:stroke markers fill"
         id="circle951" />
    </g>
  </g>
</svg>
