<?xml version="1.0" encoding="UTF-8" standalone="no"?>
<svg
   xmlns:osb="http://www.openswatchbook.org/uri/2009/osb"
   xmlns:dc="http://purl.org/dc/elements/1.1/"
   xmlns:cc="http://creativecommons.org/ns#"
   xmlns:rdf="http://www.w3.org/1999/02/22-rdf-syntax-ns#"
   xmlns:svg="http://www.w3.org/2000/svg"
   xmlns="http://www.w3.org/2000/svg"
   xmlns:xlink="http://www.w3.org/1999/xlink"
   width="1mm"
   height="1mm"
   version="1.1"
   viewBox="0 0 100 100"
   id="svg985">
  <metadata
     id="metadata989">
    <rdf:RDF>
      <cc:Work
         rdf:about="">
        <dc:format>image/svg+xml</dc:format>
        <dc:type
           rdf:resource="http://purl.org/dc/dcmitype/StillImage" />
        <dc:title></dc:title>
      </cc:Work>
    </rdf:RDF>
  </metadata>
  <defs
     id="defs971">
    <linearGradient
       osb:paint="solid"
       id="linearGradient1835">
      <stop
         id="stop1833"
         offset="0"
         style="stop-color:#000000;stop-opacity:1;" />
    </linearGradient>
    <linearGradient
       xlink:href="#b"
       gradientUnits="userSpaceOnUse"
       y2="163.78999"
       y1="163.78999"
       x2="73.473999"
       x1="41.519001"
       id="a" />
    <linearGradient
       osb:paint="solid"
       id="b">
      <stop
         id="stop962"
         offset="0"
         stop-color="#3d253b" />
    </linearGradient>
    <linearGradient
       gradientTransform="scale(0.26458)"
       gradientUnits="userSpaceOnUse"
       y2="636.04999"
       y1="636.04999"
       x2="268.25"
       x1="166.37"
       id="c">
      <stop
         id="stop965"
         offset="0"
         stop-color="#802954" />
    </linearGradient>
    <linearGradient
       gradientUnits="userSpaceOnUse"
       gradientTransform="matrix(1.0112,0,0,1.0112,-80.028,2.8786)"
       y2="136.03999"
       y1="136.03999"
       x2="145.22"
       x1="126.35"
       id="d">
      <stop
         id="stop968"
         offset="0"
         stop-color="#e6deca" />
    </linearGradient>
    <linearGradient
       gradientUnits="userSpaceOnUse"
       y2="163.80354"
       x2="72.843689"
       y1="163.80354"
       x1="42.137119"
       id="linearGradient1837"
       xlink:href="#b" />
    <linearGradient
       y2="636.04999"
       x2="268.25"
       y1="636.04999"
       x1="166.37"
       gradientTransform="scale(0.26458)"
       gradientUnits="userSpaceOnUse"
       id="linearGradient1839"
       xlink:href="#c" />
    <linearGradient
       y2="163.80354"
       x2="72.843689"
       y1="163.80354"
       x1="42.137119"
       gradientUnits="userSpaceOnUse"
       id="linearGradient1841"
       xlink:href="#b" />
    <linearGradient
       y2="136.03999"
       x2="145.22"
       y1="136.03999"
       x1="126.35"
       gradientTransform="matrix(1.0112,0,0,1.0112,-80.028,2.8786)"
       gradientUnits="userSpaceOnUse"
       id="linearGradient1843"
       xlink:href="#d" />
    <linearGradient
       y2="163.80354"
       x2="72.843689"
       y1="163.80354"
       x1="42.137119"
       gradientUnits="userSpaceOnUse"
       id="linearGradient1845"
       xlink:href="#b" />
    <linearGradient
       y2="636.04999"
       x2="268.25"
       y1="636.04999"
       x1="166.37"
       gradientTransform="scale(0.26458)"
       gradientUnits="userSpaceOnUse"
       id="linearGradient1847"
       xlink:href="#c" />
    <linearGradient
       y2="136.03999"
       x2="145.22"
       y1="136.03999"
       x1="126.35"
       gradientTransform="matrix(1.0112,0,0,1.0112,-80.028,2.8786)"
       gradientUnits="userSpaceOnUse"
       id="linearGradient1849"
       xlink:href="#d" />
  </defs>
  <g
     style="display:inline;opacity:1;stroke:url(#linearGradient1837);stroke-width:9.10266;stroke-linejoin:round;stroke-miterlimit:4;stroke-dasharray:none;stroke-opacity:1;paint-order:stroke markers fill"
     id="g1831">
    <path
       id="path1827"
       clip-path="none"
       style="display:inline;fill:url(#linearGradient1839);stroke:url(#linearGradient1841);stroke-width:9.10266;stroke-linejoin:round;stroke-miterlimit:4;stroke-dasharray:none;stroke-opacity:1;paint-order:stroke markers fill"
       d="m -2.79491,-143.354 c -10.02289,0.265 -16.65519,9.459 -20.81729,17.569 -9.555,19.455 -11.3192,41.5774 -10.9589,62.9455 0,15.7163 0,31.4326 0,47.1489 7.1905,7.39558 17.4084,11.88987 27.794,11.11507 9.13278,-0.25866 18.7944,1.22806 27.2046,-3.28118 3.7984,-2.39679 9.5308,-4.70019 10.8643,-9.06279 -0.0858,-20.5394 0.1856,-41.0841 -0.1634,-61.6196 -1.0042,-18.1108 -4.1251,-36.8619 -13.8225,-52.5139 -4.3764,-6.934 -11.32992,-13.215 -20.10081,-12.301 z" />
    <path
       id="path1829"
       clip-path="none"
       style="display:inline;fill:url(#linearGradient1843);stroke:url(#linearGradient1845);stroke-width:9.10266;stroke-linejoin:round;stroke-miterlimit:4;stroke-dasharray:none;stroke-opacity:1;paint-order:stroke markers fill"
       d="m 21.1527,-142.007 c 0.1557,10.037 -6.9594,19.6 -16.61825,22.334 -9.50746,3.01 -20.63455,-0.978 -26.06285,-9.345 -5.6817,-8.197 -5.1514,-20.005 1.2414,-27.66 6.1561,-7.846 17.59547,-10.823 26.79528,-6.973 8.71472,3.386 14.74272,12.293 14.64442,21.644 z" />
  </g>
  <g
     id="g983"
     style="display:inline;opacity:1;paint-order:markers stroke fill">
    <path
       d="m -2.79491,-143.354 c -10.02289,0.265 -16.65519,9.459 -20.81729,17.569 -9.555,19.455 -11.3192,41.5774 -10.9589,62.9455 0,15.7163 0,31.4326 0,47.1489 7.1905,7.39558 17.4084,11.88987 27.794,11.11507 9.13278,-0.25866 18.7944,1.22806 27.2046,-3.28118 3.7984,-2.39679 9.5308,-4.70019 10.8643,-9.06279 -0.0858,-20.5394 0.1856,-41.0841 -0.1634,-61.6196 -1.0042,-18.1108 -4.1251,-36.8619 -13.8225,-52.5139 -4.3764,-6.934 -11.32992,-13.215 -20.10081,-12.301 z"
       style="display:inline;fill:url(#linearGradient1847);stroke-width:0.646488;paint-order:markers stroke fill"
       clip-path="none"
       id="path979" />
    <path
       d="m 21.1527,-142.007 c 0.1557,10.037 -6.9594,19.6 -16.61825,22.334 -9.50746,3.01 -20.63455,-0.978 -26.06285,-9.345 -5.6817,-8.197 -5.1514,-20.005 1.2414,-27.66 6.1561,-7.846 17.59547,-10.823 26.79528,-6.973 8.71472,3.386 14.74272,12.293 14.64442,21.644 z"
       style="display:inline;fill:url(#linearGradient1849);paint-order:markers stroke fill"
       clip-path="none"
       id="path981" />
  </g>
</svg>
