<?xml version="1.0" encoding="UTF-8" standalone="no"?>
<svg
   xmlns:osb="http://www.openswatchbook.org/uri/2009/osb"
   xmlns:dc="http://purl.org/dc/elements/1.1/"
   xmlns:cc="http://creativecommons.org/ns#"
   xmlns:rdf="http://www.w3.org/1999/02/22-rdf-syntax-ns#"
   xmlns:svg="http://www.w3.org/2000/svg"
   xmlns="http://www.w3.org/2000/svg"
   xmlns:xlink="http://www.w3.org/1999/xlink"
   xmlns:sodipodi="http://sodipodi.sourceforge.net/DTD/sodipodi-0.dtd"
   xmlns:inkscape="http://www.inkscape.org/namespaces/inkscape"
   inkscape:version="1.0rc1 (09960d6f05, 2020-04-09)"
   sodipodi:docname="single-character.svg"
   id="svg985"
   viewBox="0 0 210 297"
   version="1.1"
   height="297mm"
   width="210mm">
  <metadata
     id="metadata989">
    <rdf:RDF>
      <cc:Work
         rdf:about="">
        <dc:format>image/svg+xml</dc:format>
        <dc:type
           rdf:resource="http://purl.org/dc/dcmitype/StillImage" />
        <dc:title></dc:title>
      </cc:Work>
    </rdf:RDF>
  </metadata>
  <sodipodi:namedview
     inkscape:current-layer="svg985"
     inkscape:window-maximized="0"
     inkscape:window-y="24"
     inkscape:window-x="1920"
     inkscape:cy="179.88358"
     inkscape:cx="17.787949"
     inkscape:zoom="2.9611953"
     showgrid="false"
     id="namedview987"
     inkscape:window-height="2108"
     inkscape:window-width="1728"
     inkscape:pageshadow="2"
     inkscape:pageopacity="0"
     guidetolerance="10"
     gridtolerance="10"
     objecttolerance="10"
     borderopacity="1"
     bordercolor="#666666"
     pagecolor="#ffffff" />
  <defs
     id="defs971">
    <linearGradient
       osb:paint="solid"
       id="linearGradient1835">
      <stop
         id="stop1833"
         offset="0"
         style="stop-color:#000000;stop-opacity:1;" />
    </linearGradient>
    <linearGradient
       xlink:href="#b"
       gradientUnits="userSpaceOnUse"
       y2="163.79"
       y1="163.79"
       x2="73.474"
       x1="41.519"
       id="a" />
    <linearGradient
       osb:paint="solid"
       id="b">
      <stop
         id="stop962"
         offset="0"
         stop-color="#3d253b" />
    </linearGradient>
    <linearGradient
       gradientTransform="scale(0.26458)"
       gradientUnits="userSpaceOnUse"
       y2="636.05"
       y1="636.05"
       x2="268.25"
       x1="166.37"
       id="c">
      <stop
         id="stop965"
         offset="0"
         stop-color="#802954" />
    </linearGradient>
    <linearGradient
       gradientUnits="userSpaceOnUse"
       gradientTransform="matrix(1.0112,0,0,1.0112,-80.028,2.8786)"
       y2="136.04"
       y1="136.04"
       x2="145.22"
       x1="126.35"
       id="d">
      <stop
         id="stop968"
         offset="0"
         stop-color="#e6deca" />
    </linearGradient>
    <linearGradient
       gradientUnits="userSpaceOnUse"
       y2="163.80354"
       x2="72.843689"
       y1="163.80354"
       x1="42.137119"
       id="linearGradient1837"
       xlink:href="#b"
       inkscape:collect="always" />
    <linearGradient
       y2="636.05"
       x2="268.25"
       y1="636.05"
       x1="166.37"
       gradientTransform="scale(0.26458)"
       gradientUnits="userSpaceOnUse"
       id="linearGradient1839"
       xlink:href="#c"
       inkscape:collect="always" />
    <linearGradient
       y2="163.80354"
       x2="72.843689"
       y1="163.80354"
       x1="42.137119"
       gradientUnits="userSpaceOnUse"
       id="linearGradient1841"
       xlink:href="#b"
       inkscape:collect="always" />
    <linearGradient
       y2="136.04"
       x2="145.22"
       y1="136.04"
       x1="126.35"
       gradientTransform="matrix(1.0112,0,0,1.0112,-80.028,2.8786)"
       gradientUnits="userSpaceOnUse"
       id="linearGradient1843"
       xlink:href="#d"
       inkscape:collect="always" />
    <linearGradient
       y2="163.80354"
       x2="72.843689"
       y1="163.80354"
       x1="42.137119"
       gradientUnits="userSpaceOnUse"
       id="linearGradient1845"
       xlink:href="#b"
       inkscape:collect="always" />
    <linearGradient
       y2="636.05"
       x2="268.25"
       y1="636.05"
       x1="166.37"
       gradientTransform="scale(0.26458)"
       gradientUnits="userSpaceOnUse"
       id="linearGradient1847"
       xlink:href="#c"
       inkscape:collect="always" />
    <linearGradient
       y2="136.04"
       x2="145.22"
       y1="136.04"
       x1="126.35"
       gradientTransform="matrix(1.0112,0,0,1.0112,-80.028,2.8786)"
       gradientUnits="userSpaceOnUse"
       id="linearGradient1849"
       xlink:href="#d"
       inkscape:collect="always" />
  </defs>
  <g
     inkscape:label="outline"
     transform="translate(-41.859257,-129.16387)"
     style="display:inline;opacity:1;stroke:url(#linearGradient1837);stroke-width:3.72533;stroke-linejoin:round;stroke-miterlimit:4;stroke-dasharray:none;stroke-opacity:1;paint-order:stroke markers fill"
     id="g1831">
    <path
       id="path1827"
       clip-path="none"
       style="display:inline;fill:url(#linearGradient1839);stroke:url(#linearGradient1841);stroke-width:3.72533;stroke-linejoin:round;stroke-miterlimit:4;stroke-dasharray:none;stroke-opacity:1;paint-order:stroke markers fill"
       inkscape:label="path979"
       d="m 57.022282,139.88874 c -4.101951,0.10847 -6.816272,3.87126 -8.519614,7.19023 -3.910461,7.96206 -4.632468,17.0158 -4.485023,25.76086 0,6.43202 0,12.86403 0,19.29605 2.942752,3.02669 7.12451,4.86601 11.374895,4.54892 3.737656,-0.10586 7.691759,0.50259 11.133667,-1.34285 1.554545,-0.98091 3.900586,-1.9236 4.44632,-3.70901 -0.03511,-8.40589 0.07596,-16.81396 -0.0669,-25.21826 -0.410972,-7.41198 -1.688192,-15.08614 -5.656945,-21.49155 -1.791072,-2.8379 -4.636852,-5.40849 -8.226403,-5.03439 z"
       inkscape:connector-curvature="0" />
    <path
       id="path1829"
       clip-path="none"
       style="display:inline;fill:url(#linearGradient1843);stroke:url(#linearGradient1845);stroke-width:3.72533;stroke-linejoin:round;stroke-miterlimit:4;stroke-dasharray:none;stroke-opacity:1;paint-order:stroke markers fill"
       d="m 66.823,140.44 c 0.06373,4.1078 -2.848185,8.02125 -6.801124,9.14032 -3.891,1.23175 -8.444856,-0.40046 -10.666407,-3.82462 -2.325303,-3.35455 -2.108243,-8.1872 0.508064,-11.31997 2.519417,-3.21116 7.201058,-4.42944 10.966145,-2.85371 3.566556,1.38565 6.033578,5.03094 5.993322,8.85798 z"
       inkscape:connector-curvature="0" />
  </g>
  <g
     inkscape:label="front"
     id="g983"
     style="display:inline;opacity:1;paint-order:markers stroke fill"
     transform="translate(-41.859257,-129.16387)">
    <path
       inkscape:connector-curvature="0"
       d="m 57.022282,139.88874 c -4.101951,0.10847 -6.816272,3.87126 -8.519614,7.19023 -3.910461,7.96206 -4.632468,17.0158 -4.485023,25.76086 0,6.43202 0,12.86403 0,19.29605 2.942752,3.02669 7.12451,4.86601 11.374895,4.54892 3.737656,-0.10586 7.691759,0.50259 11.133667,-1.34285 1.554545,-0.98091 3.900586,-1.9236 4.44632,-3.70901 -0.03511,-8.40589 0.07596,-16.81396 -0.0669,-25.21826 -0.410972,-7.41198 -1.688192,-15.08614 -5.656945,-21.49155 -1.791072,-2.8379 -4.636852,-5.40849 -8.226403,-5.03439 z"
       inkscape:label="path979"
       style="display:inline;fill:url(#linearGradient1847);stroke-width:0.26458;paint-order:markers stroke fill"
       clip-path="none"
       id="path979" />
    <path
       inkscape:connector-curvature="0"
       d="m 66.823,140.44 c 0.06373,4.1078 -2.848185,8.02125 -6.801124,9.14032 -3.891,1.23175 -8.444856,-0.40046 -10.666407,-3.82462 -2.325303,-3.35455 -2.108243,-8.1872 0.508064,-11.31997 2.519417,-3.21116 7.201058,-4.42944 10.966145,-2.85371 3.566556,1.38565 6.033578,5.03094 5.993322,8.85798 z"
       style="display:inline;fill:url(#linearGradient1849);paint-order:markers stroke fill"
       clip-path="none"
       id="path981" />
  </g>
</svg>
