<svg width="210mm" height="297mm" version="1.1" viewBox="0 0 210 297" xmlns="http://www.w3.org/2000/svg" xmlns:osb="http://www.openswatchbook.org/uri/2009/osb" xmlns:xlink="http://www.w3.org/1999/xlink"><defs><linearGradient id="a" x1="41.519" x2="73.474" y1="163.79" y2="163.79" gradientUnits="userSpaceOnUse" xlink:href="#b"/><linearGradient id="b" osb:paint="solid"><stop stop-color="#3d253b" offset="0"/></linearGradient><linearGradient id="c" x1="166.37" x2="268.25" y1="636.05" y2="636.05" gradientUnits="userSpaceOnUse"><stop stop-color="#802954" offset="0"/></linearGradient><linearGradient id="d" x1="126.35" x2="145.22" y1="136.04" y2="136.04" gradientTransform="matrix(1.0112 0 0 1.0112 -80.028 2.8786)" gradientUnits="userSpaceOnUse"><stop stop-color="#e6deca" offset="0"/></linearGradient></defs><g transform="translate(51.256 -11.41)" fill="none" stroke="url(#a)" stroke-linecap="round" stroke-linejoin="round" style="paint-order:normal"><path transform="scale(.26458)" d="m215.52 528.72c-27.23 0-49.152 49.822-49.152 111.71v85.762c11.084 10.9 24.18 17.193 38.24 17.193h25.398c14.06 0 27.156-6.2931 38.24-17.193v-85.762c0-61.887-21.922-111.71-49.152-111.71z" stroke-width="18.898" style="paint-order:normal"/><path d="m66.823 140.44a9.5426 9.5426 0 0 1-9.5426 9.5426 9.5426 9.5426 0 0 1-9.5426-9.5426 9.5426 9.5426 0 0 1 9.5426-9.5426 9.5426 9.5426 0 0 1 9.5426 9.5426" stroke-width="5" style="paint-order:normal"/></g><g transform="translate(51.256 -11.41)" style="paint-order:markers stroke fill"><path transform="scale(.26458)" d="m215.52 528.72c-27.23 0-49.152 49.822-49.152 111.71v85.762c11.084 10.9 24.18 17.193 38.24 17.193h25.398c14.06 0 27.156-6.2931 38.24-17.193v-85.762c0-61.887-21.922-111.71-49.152-111.71z" fill="url(#c)" style="paint-order:markers stroke fill"/><path d="m66.823 140.44a9.5426 9.5426 0 0 1-9.5426 9.5426 9.5426 9.5426 0 0 1-9.5426-9.5426 9.5426 9.5426 0 0 1 9.5426-9.5426 9.5426 9.5426 0 0 1 9.5426 9.5426" fill="url(#d)" style="paint-order:markers stroke fill"/></g></svg>
